<svg width="512" height="512" viewBox="0 0 512 512" fill="none" xmlns="http://www.w3.org/2000/svg">
<g clip-path="url(#clip0_714_946)">
<rect x="50" y="50" width="412" height="412" rx="93" fill="white"/>
<mask id="path-2-inside-1_714_946" fill="white">
<rect x="50" y="50" width="412" height="412" rx="93"/>
</mask>
<rect x="50" y="50" width="412" height="412" rx="93" fill="url(#paint0_linear_714_946)" stroke="url(#paint1_radial_714_946)" stroke-width="412" mask="url(#path-2-inside-1_714_946)"/>
<rect x="139.132" y="121.246" width="276" height="225" transform="rotate(10 139.132 121.246)" fill="url(#paint2_linear_714_946)" fill-opacity="0.9" stroke="white" stroke-width="15"/>
<path d="M241.927 335.856C285.982 343.624 327.994 314.208 335.762 270.152C343.53 226.097 314.113 184.086 270.058 176.317C226.003 168.549 183.991 197.966 176.223 242.021C168.455 286.077 197.871 328.088 241.927 335.856Z" fill="#FFCC4D"/>
<path d="M253.648 269.382C237.592 266.551 227.268 262.802 214.545 257.917C211.638 256.806 205.682 256.355 204.119 265.218C200.993 282.944 217.449 308.693 245.834 313.698C274.214 318.702 298.489 300.136 301.615 282.409C303.178 273.546 297.427 271.929 294.314 271.983C280.687 272.221 269.704 272.213 253.648 269.382Z" fill="#664500"/>
<path d="M212.982 266.781C212.982 266.781 225.496 273.557 252.085 278.245C278.675 282.934 292.751 280.846 292.751 280.846C292.751 280.846 280.763 297.01 249.741 291.54C218.72 286.07 212.982 266.781 212.982 266.781Z" fill="white"/>
<path d="M230.184 246.967C236.303 248.046 242.488 241.976 243.998 233.41C245.509 224.843 241.773 217.024 235.654 215.945C229.535 214.866 223.35 220.936 221.84 229.502C220.329 238.069 224.065 245.888 230.184 246.967Z" fill="#664500"/>
<path d="M283.364 256.344C289.482 257.423 295.667 251.353 297.178 242.787C298.688 234.22 294.952 226.401 288.834 225.322C282.715 224.243 276.53 230.313 275.02 238.879C273.509 247.446 277.245 255.265 283.364 256.344Z" fill="#664500"/>
<rect x="94.6781" y="373.357" width="276" height="225" transform="rotate(10 94.6781 373.357)" fill="url(#paint3_linear_714_946)" fill-opacity="0.9" stroke="white" stroke-width="15"/>
<path d="M197.473 587.967C241.528 595.735 283.54 566.319 291.308 522.263C299.076 478.208 269.659 436.196 225.604 428.428C181.549 420.66 139.537 450.077 131.769 494.132C124.001 538.188 153.418 580.199 197.473 587.967Z" fill="#FFCC4D"/>
<rect x="183.586" y="-130.865" width="276" height="225" transform="rotate(10 183.586 -130.865)" fill="url(#paint4_linear_714_946)" fill-opacity="0.9" stroke="white" stroke-width="15"/>
<path d="M286.381 83.7455C330.436 91.5136 372.448 62.097 380.216 18.0415C387.984 -26.0139 358.567 -68.0252 314.512 -75.7934C270.456 -83.5615 228.445 -54.1449 220.677 -10.0895C212.909 33.966 242.325 75.9773 286.381 83.7455Z" fill="#FFCC4D"/>
<path d="M298.102 17.271C282.046 14.44 271.722 10.6913 258.999 5.80664C256.092 4.69552 250.136 4.24381 248.573 13.1071C245.447 30.8336 261.903 56.5824 290.288 61.5874C318.668 66.5916 342.943 48.0248 346.069 30.2983C347.632 21.435 341.88 19.8178 338.768 19.8721C325.141 20.1105 314.158 20.1021 298.102 17.271Z" fill="#664500"/>
</g>
<path d="M291.484 324.194C291.484 324.194 297.935 300.116 322.013 306.568L490.556 351.729C490.556 351.729 514.634 358.181 508.182 382.258L479.15 490.607C479.15 490.607 472.698 514.685 448.621 508.233L280.078 463.072C280.078 463.072 256 456.621 262.452 432.543L291.484 324.194Z" fill="#31373D"/>
<path d="M387.246 472.433C420.49 481.341 454.661 461.612 463.569 428.368C472.477 395.124 452.748 360.953 419.504 352.045C386.26 343.138 352.089 362.866 343.181 396.11C334.273 429.355 354.002 463.526 387.246 472.433Z" fill="#CCD6DD"/>
<path d="M390.472 460.395C417.067 467.521 444.404 451.738 451.53 425.143C458.656 398.547 442.874 371.21 416.278 364.084C389.683 356.958 362.346 372.741 355.22 399.336C348.094 425.932 363.876 453.268 390.472 460.395Z" fill="#31373D"/>
<path d="M395.311 442.336C411.933 446.79 429.018 436.926 433.472 420.304C437.926 403.682 428.062 386.596 411.439 382.142C394.817 377.688 377.732 387.553 373.278 404.175C368.824 420.797 378.688 437.882 395.311 442.336Z" fill="#3B88C3"/>
<path d="M485.501 382.632C490.488 383.969 495.613 381.009 496.95 376.023C498.286 371.036 495.326 365.91 490.34 364.574C485.353 363.238 480.228 366.197 478.891 371.184C477.555 376.171 480.515 381.296 485.501 382.632Z" fill="white"/>
<path d="M389.407 343.981L417.142 312.703L377.8 315.065L361.787 278.516L341.684 305.387L307.18 289.69L321.581 332.258L285.032 348.272L321.148 357.949L299.432 390.84L340.387 382.459L368.439 422.233L375.323 372.465L413.052 376.123L389.407 343.981Z" fill="#FFAC33"/>
<path d="M345.226 364.4L323.942 371.601L334.8 355.155L318.355 344.297L339.639 337.097L326.419 314.2L350.497 320.652L361.355 304.206L368.555 325.49L388.226 324.31L371.349 339.142L384.568 362.039L364.897 363.22L364.465 388.91L345.226 364.4Z" fill="white"/>
<defs>
<linearGradient id="paint0_linear_714_946" x1="256" y1="50" x2="256" y2="462" gradientUnits="userSpaceOnUse">
<stop stop-color="white"/>
<stop offset="1" stop-color="#E3E9EB"/>
</linearGradient>
<radialGradient id="paint1_radial_714_946" cx="0" cy="0" r="1" gradientUnits="userSpaceOnUse" gradientTransform="translate(256 256) rotate(90) scale(206)">
<stop stop-color="#004F71"/>
<stop offset="0.520833" stop-color="#005B9D"/>
<stop offset="1" stop-color="#337E9E"/>
</radialGradient>
<linearGradient id="paint2_linear_714_946" x1="278.548" y1="112.557" x2="278.548" y2="352.557" gradientUnits="userSpaceOnUse">
<stop stop-color="#E6E6E6"/>
<stop offset="1" stop-color="white"/>
</linearGradient>
<linearGradient id="paint3_linear_714_946" x1="234.094" y1="364.668" x2="234.094" y2="604.668" gradientUnits="userSpaceOnUse">
<stop stop-color="#E6E6E6"/>
<stop offset="1" stop-color="white"/>
</linearGradient>
<linearGradient id="paint4_linear_714_946" x1="323.002" y1="-139.553" x2="323.002" y2="100.447" gradientUnits="userSpaceOnUse">
<stop stop-color="#E6E6E6"/>
<stop offset="1" stop-color="white"/>
</linearGradient>
<clipPath id="clip0_714_946">
<rect x="50" y="50" width="412" height="412" rx="93" fill="white"/>
</clipPath>
</defs>
</svg>
