<svg width="512" height="512" viewBox="0 0 512 512" fill="none" xmlns="http://www.w3.org/2000/svg">
<g clip-path="url(#clip0_713_665)">
<g clip-path="url(#clip1_713_665)">
<rect x="50" y="50" width="412" height="412" rx="93" fill="white"/>
<mask id="path-2-inside-1_713_665" fill="white">
<rect x="50" y="50" width="412" height="412" rx="93"/>
</mask>
<rect x="50" y="50" width="412" height="412" rx="93" fill="url(#paint0_linear_713_665)" stroke="url(#paint1_radial_713_665)" stroke-width="412" mask="url(#path-2-inside-1_713_665)"/>
<rect x="129.213" y="120.799" width="276" height="225" transform="rotate(10 129.213 120.799)" fill="url(#paint2_linear_713_665)" fill-opacity="0.9" stroke="white" stroke-width="15"/>
<path d="M232.008 335.41C276.064 343.178 318.075 313.761 325.843 269.706C333.611 225.65 304.195 183.639 260.139 175.871C216.084 168.103 174.072 197.519 166.304 241.575C158.536 285.63 187.953 327.642 232.008 335.41Z" fill="#FFCC4D"/>
<path d="M243.729 268.935C227.674 266.104 217.35 262.356 204.626 257.471C201.719 256.36 195.763 255.908 194.2 264.771C191.074 282.498 207.531 308.247 235.915 313.252C264.295 318.256 288.57 299.689 291.696 281.963C293.259 273.099 287.508 271.482 284.396 271.536C270.769 271.775 259.785 271.766 243.729 268.935Z" fill="#664500"/>
<path d="M203.063 266.334C203.063 266.334 215.577 273.11 242.167 277.798C268.756 282.487 282.833 280.4 282.833 280.4C282.833 280.4 270.844 296.563 239.822 291.093C208.801 285.623 203.063 266.334 203.063 266.334Z" fill="white"/>
<path d="M220.265 246.52C226.384 247.599 232.569 241.529 234.079 232.963C235.59 224.397 231.854 216.578 225.735 215.499C219.616 214.42 213.432 220.49 211.921 229.056C210.411 237.622 214.146 245.441 220.265 246.52Z" fill="#664500"/>
<path d="M273.445 255.897C279.564 256.976 285.748 250.906 287.259 242.34C288.769 233.774 285.034 225.955 278.915 224.876C272.796 223.797 266.611 229.867 265.101 238.433C263.59 246.999 267.326 254.818 273.445 255.897Z" fill="#664500"/>
<rect x="84.7593" y="372.91" width="276" height="225" transform="rotate(10 84.7593 372.91)" fill="url(#paint3_linear_713_665)" fill-opacity="0.9" stroke="white" stroke-width="15"/>
<path d="M187.554 587.521C231.61 595.289 273.621 565.872 281.389 521.817C289.157 477.761 259.741 435.75 215.685 427.982C171.63 420.214 129.618 449.63 121.85 493.686C114.082 537.741 143.499 579.752 187.554 587.521Z" fill="#FFCC4D"/>
<rect x="173.667" y="-131.312" width="276" height="225" transform="rotate(10 173.667 -131.312)" fill="url(#paint4_linear_713_665)" fill-opacity="0.9" stroke="white" stroke-width="15"/>
<path d="M276.462 83.2989C320.518 91.0671 362.529 61.6505 370.297 17.595C378.065 -26.4604 348.649 -68.4718 304.593 -76.2399C260.538 -84.0081 218.526 -54.5914 210.758 -10.536C202.99 33.5194 232.407 75.5308 276.462 83.2989Z" fill="#FFCC4D"/>
<path d="M288.183 16.8245C272.128 13.9934 261.804 10.2447 249.08 5.36011C246.173 4.24899 240.217 3.79728 238.654 12.6605C235.528 30.3871 251.985 56.1359 280.369 61.1408C308.749 66.145 333.024 47.5783 336.15 29.8517C337.713 20.9884 331.962 19.3712 328.849 19.4256C315.223 19.6639 304.239 19.6556 288.183 16.8245Z" fill="#664500"/>
</g>
<g filter="url(#filter0_dd_713_665)">
<path d="M285.484 306.194C285.484 306.194 291.935 282.116 316.013 288.568L484.556 333.729C484.556 333.729 508.634 340.181 502.182 364.258L473.15 472.607C473.15 472.607 466.698 496.685 442.621 490.233L274.078 445.072C274.078 445.072 250 438.621 256.452 414.543L285.484 306.194Z" fill="#31373D"/>
<path d="M287.415 306.713L287.415 306.712L287.416 306.71L287.426 306.674C287.436 306.639 287.452 306.583 287.475 306.507C287.522 306.355 287.595 306.123 287.698 305.826C287.904 305.231 288.227 304.374 288.688 303.361C289.614 301.325 291.074 298.703 293.216 296.289C295.351 293.881 298.135 291.71 301.726 290.495C305.302 289.285 309.814 288.978 315.495 290.5L484.036 335.66L484.037 335.66L484.038 335.661L484.04 335.661L484.076 335.672C484.111 335.681 484.167 335.698 484.243 335.721C484.395 335.767 484.627 335.84 484.924 335.943C485.519 336.149 486.376 336.473 487.389 336.934C489.425 337.86 492.047 339.32 494.461 341.461C496.869 343.596 499.041 346.381 500.255 349.971C501.465 353.548 501.772 358.059 500.25 363.741L471.219 472.087L471.219 472.088L471.218 472.09L471.217 472.092L471.207 472.128C471.198 472.162 471.181 472.218 471.158 472.295C471.112 472.447 471.039 472.678 470.936 472.975C470.73 473.571 470.406 474.427 469.945 475.441C469.019 477.476 467.559 480.098 465.418 482.513C463.283 484.921 460.498 487.092 456.908 488.307C453.331 489.516 448.82 489.824 443.138 488.302L274.597 443.141L274.595 443.141L274.593 443.14L274.557 443.13C274.523 443.12 274.467 443.104 274.39 443.081C274.238 443.034 274.007 442.961 273.71 442.858C273.114 442.652 272.258 442.329 271.244 441.868C269.209 440.942 266.587 439.482 264.172 437.341C261.764 435.205 259.593 432.421 258.378 428.83C257.169 425.254 256.861 420.742 258.383 415.061L287.415 306.714L287.415 306.713Z" stroke="white" stroke-opacity="0.2" stroke-width="4"/>
<path d="M381.246 454.433C414.49 463.341 448.661 443.612 457.569 410.368C466.477 377.124 446.748 342.953 413.504 334.045C380.26 325.138 346.089 344.866 337.181 378.11C328.273 411.355 348.002 445.526 381.246 454.433Z" fill="#CCD6DD"/>
<path d="M384.472 442.395C411.067 449.521 438.404 433.738 445.53 407.143C452.656 380.547 436.874 353.21 410.278 346.084C383.683 338.958 356.346 354.741 349.22 381.336C342.094 407.932 357.876 435.268 384.472 442.395Z" fill="#31373D"/>
<path d="M389.311 424.336C405.933 428.79 423.018 418.926 427.472 402.304C431.926 385.682 422.062 368.596 405.439 364.142C388.817 359.688 371.732 369.553 367.278 386.175C362.824 402.797 372.688 419.882 389.311 424.336Z" fill="#74ACC4"/>
<path d="M479.501 364.632C484.488 365.969 489.613 363.009 490.95 358.023C492.286 353.036 489.327 347.91 484.34 346.574C479.353 345.238 474.228 348.197 472.891 353.184C471.555 358.171 474.515 363.296 479.501 364.632Z" fill="white"/>
<g filter="url(#filter1_d_713_665)">
<path d="M384.844 327.934C384.006 326.795 384.077 325.225 385.016 324.166L406.337 300.122C408.11 298.122 406.581 294.977 403.913 295.137L373.888 296.939C372.634 297.015 371.465 296.3 370.961 295.149L357.853 265.231C356.931 263.126 354.08 262.798 352.703 264.638L337.13 285.454C336.286 286.583 334.769 286.971 333.486 286.387L307.483 274.558C305.093 273.47 302.558 275.762 303.399 278.25L314.699 311.653C315.198 313.127 314.487 314.738 313.061 315.362L286.866 326.839C284.268 327.978 284.554 331.751 287.293 332.485L311.128 338.872C313.106 339.402 313.983 341.714 312.855 343.422L297.423 366.795C295.95 369.026 297.909 371.923 300.528 371.388L332.465 364.852C333.633 364.613 334.831 365.088 335.518 366.062L358.058 398.02C359.626 400.245 363.108 399.398 363.481 396.702L368.928 357.318C369.149 355.724 370.588 354.588 372.19 354.743L400.365 357.475C402.947 357.725 404.608 354.801 403.071 352.711L384.844 327.934Z" fill="#FFAC33"/>
</g>
<g filter="url(#filter2_ddd_713_665)">
<path d="M339.226 346.4L317.942 353.601L328.8 337.155L312.355 326.297L333.639 319.097L320.419 296.2L344.497 302.652L355.355 286.206L362.555 307.49L382.226 306.31L365.349 321.142L378.568 344.039L358.897 345.22L358.465 370.91L339.226 346.4Z" fill="white"/>
</g>
</g>
</g>
<defs>
<filter id="filter0_dd_713_665" x="243.353" y="258.435" width="271.927" height="256.897" filterUnits="userSpaceOnUse" color-interpolation-filters="sRGB">
<feFlood flood-opacity="0" result="BackgroundImageFix"/>
<feColorMatrix in="SourceAlpha" type="matrix" values="0 0 0 0 0 0 0 0 0 0 0 0 0 0 0 0 0 0 127 0" result="hardAlpha"/>
<feOffset dy="4"/>
<feGaussianBlur stdDeviation="4.5"/>
<feComposite in2="hardAlpha" operator="out"/>
<feColorMatrix type="matrix" values="0 0 0 0 0 0 0 0 0 0 0 0 0 0 0 0 0 0 0.3 0"/>
<feBlend mode="normal" in2="BackgroundImageFix" result="effect1_dropShadow_713_665"/>
<feColorMatrix in="SourceAlpha" type="matrix" values="0 0 0 0 0 0 0 0 0 0 0 0 0 0 0 0 0 0 127 0" result="hardAlpha"/>
<feOffset dy="12"/>
<feGaussianBlur stdDeviation="6"/>
<feComposite in2="hardAlpha" operator="out"/>
<feColorMatrix type="matrix" values="0 0 0 0 0.120833 0 0 0 0 0 0 0 0 0 0.483333 0 0 0 0.1 0"/>
<feBlend mode="normal" in2="effect1_dropShadow_713_665" result="effect2_dropShadow_713_665"/>
<feBlend mode="normal" in="SourceGraphic" in2="effect2_dropShadow_713_665" result="shape"/>
</filter>
<filter id="filter1_d_713_665" x="284.069" y="252.435" width="130.031" height="146.859" filterUnits="userSpaceOnUse" color-interpolation-filters="sRGB">
<feFlood flood-opacity="0" result="BackgroundImageFix"/>
<feColorMatrix in="SourceAlpha" type="matrix" values="0 0 0 0 0 0 0 0 0 0 0 0 0 0 0 0 0 0 127 0" result="hardAlpha"/>
<feOffset dx="3" dy="-7"/>
<feGaussianBlur stdDeviation="2"/>
<feComposite in2="hardAlpha" operator="out"/>
<feColorMatrix type="matrix" values="0 0 0 0 0 0 0 0 0 0 0 0 0 0 0 0 0 0 0.25 0"/>
<feBlend mode="normal" in2="BackgroundImageFix" result="effect1_dropShadow_713_665"/>
<feBlend mode="normal" in="SourceGraphic" in2="effect1_dropShadow_713_665" result="shape"/>
</filter>
<filter id="filter2_ddd_713_665" x="289.355" y="263.206" width="115.871" height="130.704" filterUnits="userSpaceOnUse" color-interpolation-filters="sRGB">
<feFlood flood-opacity="0" result="BackgroundImageFix"/>
<feColorMatrix in="SourceAlpha" type="matrix" values="0 0 0 0 0 0 0 0 0 0 0 0 0 0 0 0 0 0 127 0" result="hardAlpha"/>
<feOffset/>
<feGaussianBlur stdDeviation="11.5"/>
<feComposite in2="hardAlpha" operator="out"/>
<feColorMatrix type="matrix" values="0 0 0 0 1 0 0 0 0 1 0 0 0 0 1 0 0 0 1 0"/>
<feBlend mode="normal" in2="BackgroundImageFix" result="effect1_dropShadow_713_665"/>
<feColorMatrix in="SourceAlpha" type="matrix" values="0 0 0 0 0 0 0 0 0 0 0 0 0 0 0 0 0 0 127 0" result="hardAlpha"/>
<feOffset/>
<feGaussianBlur stdDeviation="11.5"/>
<feComposite in2="hardAlpha" operator="out"/>
<feColorMatrix type="matrix" values="0 0 0 0 1 0 0 0 0 1 0 0 0 0 1 0 0 0 1 0"/>
<feBlend mode="normal" in2="effect1_dropShadow_713_665" result="effect2_dropShadow_713_665"/>
<feColorMatrix in="SourceAlpha" type="matrix" values="0 0 0 0 0 0 0 0 0 0 0 0 0 0 0 0 0 0 127 0" result="hardAlpha"/>
<feOffset/>
<feGaussianBlur stdDeviation="11.5"/>
<feComposite in2="hardAlpha" operator="out"/>
<feColorMatrix type="matrix" values="0 0 0 0 1 0 0 0 0 1 0 0 0 0 1 0 0 0 1 0"/>
<feBlend mode="normal" in2="effect2_dropShadow_713_665" result="effect3_dropShadow_713_665"/>
<feBlend mode="normal" in="SourceGraphic" in2="effect3_dropShadow_713_665" result="shape"/>
</filter>
<linearGradient id="paint0_linear_713_665" x1="256" y1="50" x2="256" y2="462" gradientUnits="userSpaceOnUse">
<stop stop-color="white"/>
<stop offset="1" stop-color="#E3E9EB"/>
</linearGradient>
<radialGradient id="paint1_radial_713_665" cx="0" cy="0" r="1" gradientUnits="userSpaceOnUse" gradientTransform="translate(233 256) rotate(76.5919) scale(254.435)">
<stop stop-color="#004F71"/>
<stop offset="0.395833" stop-color="#005B9D"/>
<stop offset="1" stop-color="#73ABC4"/>
</radialGradient>
<linearGradient id="paint2_linear_713_665" x1="268.629" y1="112.111" x2="268.629" y2="352.111" gradientUnits="userSpaceOnUse">
<stop stop-color="#E6E6E6"/>
<stop offset="1" stop-color="white"/>
</linearGradient>
<linearGradient id="paint3_linear_713_665" x1="224.176" y1="364.222" x2="224.176" y2="604.222" gradientUnits="userSpaceOnUse">
<stop stop-color="#E6E6E6"/>
<stop offset="1" stop-color="white"/>
</linearGradient>
<linearGradient id="paint4_linear_713_665" x1="313.083" y1="-140" x2="313.083" y2="100" gradientUnits="userSpaceOnUse">
<stop stop-color="#E6E6E6"/>
<stop offset="1" stop-color="white"/>
</linearGradient>
<clipPath id="clip0_713_665">
<rect width="512" height="512" fill="white"/>
</clipPath>
<clipPath id="clip1_713_665">
<rect x="50" y="50" width="412" height="412" rx="93" fill="white"/>
</clipPath>
</defs>
</svg>
